<?xml version="1.0" standalone="no"?>
<!DOCTYPE svg PUBLIC "-//W3C//DTD SVG 20010904//EN"
 "http://www.w3.org/TR/2001/REC-SVG-20010904/DTD/svg10.dtd">
<svg version="1.0" xmlns="http://www.w3.org/2000/svg"
 width="1920.000000pt" height="1080.000000pt" viewBox="0 0 1920.000000 1080.000000"
 preserveAspectRatio="xMidYMid meet">

<g transform="translate(0.000000,1080.000000) scale(0.100000,-0.100000)"
fill="#000000" stroke="none">
<path d="M15055 8345 c-38 -13 -214 -67 -390 -120 -176 -53 -367 -112 -425
-130 -58 -18 -314 -97 -570 -174 -715 -216 -827 -250 -1265 -391 -1046 -337
-1465 -510 -1504 -620 -29 -85 94 -174 159 -115 21 19 27 69 10 80 -21 13 -7
23 88 68 153 72 344 146 657 255 252 88 842 282 857 282 3 0 -5 -46 -19 -102
-73 -308 -224 -972 -374 -1648 -194 -875 -358 -1599 -454 -2005 -78 -332 -214
-867 -222 -875 -3 -3 -3 20 0 51 6 67 -7 100 -45 110 -44 12 -69 -16 -79 -87
-13 -96 -22 -336 -15 -388 9 -58 35 -86 79 -86 56 0 83 41 135 200 111 337
287 1078 703 2950 179 805 333 1485 395 1742 l45 187 157 50 c86 27 261 81
387 119 127 39 397 120 600 182 546 164 1176 360 1197 371 43 23 43 85 -1 108
-25 14 -22 14 -106 -14z"/>
<path d="M2215 7820 c-672 -71 -1411 -454 -1791 -928 -107 -135 -202 -318
-234 -453 -38 -163 -25 -349 34 -495 13 -31 30 -64 39 -75 33 -38 107 -13 107
37 0 11 -13 51 -29 89 -55 131 -64 283 -26 430 24 90 106 251 175 344 307 414
957 787 1575 903 161 30 441 32 554 5 234 -57 380 -196 438 -417 25 -94 22
-294 -6 -426 -129 -619 -648 -1281 -1231 -1574 -97 -48 -307 -130 -336 -130
-8 0 -41 19 -72 43 -77 57 -126 89 -200 126 -34 17 -62 35 -62 40 0 5 69 292
154 638 138 560 231 949 281 1171 15 67 16 75 1 97 -21 32 -67 37 -94 11 -7
-7 -37 -116 -67 -242 -29 -126 -105 -440 -168 -699 -64 -258 -141 -574 -172
-701 l-56 -231 -81 24 c-147 42 -302 28 -371 -35 -83 -75 -70 -214 27 -299 54
-47 165 -98 246 -114 36 -6 66 -13 68 -14 1 -1 -38 -171 -87 -376 -281 -1168
-383 -1659 -385 -1855 -1 -121 11 -144 77 -144 33 0 45 6 74 37 35 40 133 227
133 257 0 74 -101 84 -130 13 l-9 -22 0 23 c-2 53 118 623 248 1177 72 307
198 837 207 866 3 13 26 17 117 22 61 4 151 14 200 23 l87 16 48 -43 c137
-125 327 -355 553 -670 351 -490 455 -619 591 -734 171 -145 323 -183 474
-120 99 41 244 177 244 229 0 34 -44 68 -73 57 -12 -5 -52 -38 -88 -73 -85
-84 -144 -113 -225 -112 -183 3 -340 157 -764 749 -260 364 -409 551 -539 680
-39 38 -71 72 -71 76 0 4 28 17 63 30 86 31 247 109 338 163 225 133 530 408
707 638 438 569 604 1204 417 1594 -57 117 -170 228 -296 289 -62 30 -128 53
-189 65 -110 23 -310 32 -425 20z m-1286 -2540 l69 -20 -15 -58 c-8 -31 -19
-73 -24 -93 l-9 -37 -70 14 c-39 7 -98 28 -131 45 -117 63 -133 144 -34 172
35 10 143 -2 214 -23z m286 -129 c43 -26 81 -53 82 -58 4 -10 -87 -23 -163
-23 -31 0 -44 4 -44 14 0 34 24 116 34 116 6 0 47 -22 91 -49z"/>
<path d="M13592 7623 c-64 -31 -153 -167 -241 -365 -106 -240 -180 -478 -301
-973 -324 -1324 -559 -2365 -562 -2490 -1 -75 31 -104 89 -80 26 11 34 26 68
121 57 163 157 400 234 553 117 232 200 362 293 459 106 109 136 80 158 -151
12 -125 30 -188 70 -249 36 -55 87 -82 151 -81 142 2 367 224 623 615 l89 136
40 -14 c106 -37 275 9 435 118 45 31 52 25 31 -29 -39 -103 -158 -545 -194
-718 -21 -100 -45 -294 -45 -357 0 -129 48 -214 127 -225 118 -16 303 155 517
477 90 136 198 316 270 450 25 47 46 82 46 79 0 -3 -18 -84 -41 -180 -240
-1034 -453 -2115 -466 -2369 -5 -97 -4 -106 15 -124 51 -45 112 -6 151 98 27
72 26 82 -4 112 -14 14 -25 35 -25 48 0 57 126 712 241 1251 133 622 323 1444
337 1455 4 4 104 17 222 30 118 12 225 26 237 31 34 13 47 45 33 80 -20 47 -9
47 -397 0 -73 -9 -71 -11 -48 85 9 40 39 102 88 185 137 231 280 510 352 692
l27 67 47 0 c27 0 102 3 168 6 l120 7 -92 -399 c-389 -1685 -703 -3315 -671
-3486 7 -38 37 -68 67 -68 29 0 71 42 95 94 32 69 31 109 -2 135 l-27 21 17
113 c89 597 367 1964 626 3082 55 237 105 446 110 467 l10 36 98 8 c53 4 529
7 1057 8 753 1 973 -2 1020 -12 33 -7 73 -16 88 -19 61 -12 92 66 42 106 -14
11 -49 25 -78 31 -142 30 -754 38 -1681 20 -280 -6 -511 -9 -512 -7 -2 2 35
156 83 343 47 186 88 353 90 370 4 25 0 35 -22 53 -34 26 -46 26 -75 3 -19
-15 -40 -85 -119 -398 l-96 -379 -157 -3 c-87 -1 -158 -1 -158 1 0 2 9 39 20
83 24 94 29 208 10 253 -16 41 -61 65 -103 55 -53 -11 -120 -92 -185 -222 -32
-64 -63 -131 -69 -148 l-11 -32 -292 -7 c-267 -7 -294 -9 -311 -26 -25 -25
-24 -64 2 -90 20 -20 26 -20 286 -13 237 6 266 5 260 -8 -38 -100 -114 -366
-188 -662 l-91 -363 -156 -12 c-179 -15 -202 -23 -202 -76 0 -57 28 -68 151
-59 l102 7 -85 -164 c-236 -454 -474 -805 -640 -946 -52 -45 -82 -54 -92 -27
-3 9 -6 55 -6 104 0 186 74 510 231 1013 56 180 60 223 26 255 -42 39 -95 25
-218 -59 -95 -64 -212 -119 -268 -126 -28 -3 -51 -4 -51 -1 0 3 49 101 108
219 146 288 186 423 148 497 -48 93 -167 63 -297 -76 -199 -210 -276 -452
-196 -613 l25 -51 -108 -161 c-235 -352 -447 -568 -531 -542 -35 11 -58 82
-74 229 -25 227 -76 316 -183 316 -133 0 -284 -169 -479 -535 -30 -55 -51 -89
-48 -75 31 151 192 843 311 1337 73 307 76 315 135 425 336 621 529 1099 532
1317 1 70 0 74 -31 102 -37 33 -54 35 -100 12z m-37 -321 c-59 -187 -273 -692
-282 -665 -5 13 57 214 113 372 50 138 195 443 202 423 2 -7 -13 -65 -33 -130z
m2610 -644 c-4 -24 -16 -71 -27 -105 -17 -59 -21 -63 -48 -63 l-29 0 29 64
c29 66 72 146 78 146 2 0 1 -19 -3 -42z m-95 -303 c0 -24 -170 -389 -178 -381
-4 5 70 252 100 334 17 46 23 52 49 52 16 0 29 -2 29 -5z m-1579 -603 c-30
-89 -89 -215 -179 -381 l-45 -84 -15 29 c-11 20 -13 47 -9 99 6 84 44 175 111
268 45 64 153 173 162 164 3 -3 -8 -46 -25 -95z"/>
<path d="M4866 7268 c-22 -20 -38 -72 -120 -398 l-95 -375 -93 -2 c-51 -1
-327 -7 -613 -13 -575 -13 -565 -11 -565 -74 0 -20 8 -40 19 -50 20 -18 180
-17 1034 9 103 3 187 3 187 0 0 -4 -22 -102 -49 -218 -27 -117 -86 -374 -131
-572 l-81 -360 -70 -135 c-198 -382 -404 -597 -501 -521 -62 50 -117 238 -138
473 -16 189 -18 196 -46 214 -19 13 -30 14 -49 6 -13 -6 -84 -91 -158 -189
-74 -98 -172 -221 -218 -273 l-84 -95 -3 34 c-9 88 56 311 134 461 49 96 105
166 168 212 71 51 156 33 230 -51 39 -44 106 -15 106 46 0 23 -11 40 -46 72
-195 181 -415 89 -581 -244 -99 -197 -155 -428 -133 -547 19 -104 111 -141
196 -80 48 35 188 194 283 320 77 104 72 105 86 -18 21 -182 91 -367 164 -432
53 -49 125 -65 198 -43 93 28 196 120 318 285 40 55 47 60 42 35 -3 -16 -42
-205 -87 -420 -195 -944 -310 -1603 -310 -1781 0 -67 3 -78 26 -100 19 -20 31
-24 52 -19 39 10 52 23 84 90 34 74 35 99 3 131 -14 14 -25 36 -25 50 0 31 49
338 91 564 129 705 339 1708 531 2540 55 239 107 465 116 501 l14 66 72 7 c39
3 474 9 966 12 883 7 1168 0 1194 -26 29 -29 106 6 106 48 0 51 -44 74 -175
92 -130 18 -895 23 -1529 11 -324 -6 -592 -9 -594 -6 -4 3 127 537 174 712 4
15 -2 29 -20 47 -31 32 -48 32 -80 4z"/>
<path d="M5102 5789 c-124 -63 -281 -301 -366 -554 -134 -397 -135 -692 -3
-827 64 -66 107 -83 207 -83 76 0 93 4 152 33 166 81 426 337 661 649 113 150
121 166 105 200 -10 22 -21 29 -50 31 -36 3 -38 2 -129 -120 -237 -317 -486
-570 -633 -643 -89 -44 -189 -30 -234 33 -62 86 -68 285 -15 483 l28 106 99
89 c279 251 413 488 333 587 -32 40 -95 47 -155 16z m36 -146 c-21 -50 -96
-157 -153 -218 l-56 -60 27 55 c35 71 95 159 143 210 45 47 55 50 39 13z"/>
<path d="M6921 5563 c-41 -35 -200 -487 -270 -768 -76 -305 -90 -436 -51 -475
28 -28 75 -26 105 4 13 13 40 57 61 97 79 159 224 408 348 599 l61 95 7 -165
c10 -255 51 -356 150 -367 43 -5 49 -3 93 38 39 36 65 80 166 287 66 134 123
242 126 239 2 -3 9 -38 14 -79 5 -40 18 -104 30 -142 26 -88 97 -165 171 -185
110 -31 258 33 435 188 l100 89 6 -71 c15 -171 127 -270 251 -223 68 26 151
117 309 337 17 24 17 24 11 -26 -4 -27 -26 -172 -49 -322 l-43 -272 -96 -104
c-448 -481 -811 -1134 -951 -1710 -51 -209 -67 -324 -72 -528 -5 -160 -2 -211
11 -280 30 -147 78 -228 154 -261 40 -18 51 -19 97 -9 302 68 645 1009 920
2523 l55 303 105 102 c187 182 460 397 731 577 118 79 154 113 154 146 0 19
-40 50 -64 50 -55 0 -522 -335 -783 -562 -57 -49 -103 -83 -103 -75 0 8 18
133 40 278 77 514 76 506 55 529 -18 20 -60 26 -81 12 -6 -4 -48 -65 -93 -137
-114 -180 -237 -349 -294 -407 -63 -63 -91 -64 -117 -5 -42 96 -31 273 29 454
37 109 39 137 9 157 -54 38 -87 5 -128 -127 -18 -56 -37 -111 -42 -123 -16
-35 -208 -227 -278 -279 -78 -57 -174 -105 -213 -105 -96 0 -146 111 -148 329
0 53 -5 112 -12 131 -12 36 -46 60 -85 60 -58 0 -139 -121 -278 -419 -48 -102
-96 -199 -108 -215 l-20 -30 -15 35 c-12 26 -16 89 -19 284 -1 141 -7 262 -13
277 -14 35 -57 53 -90 38 -40 -19 -274 -362 -404 -594 -27 -47 -50 -84 -52
-83 -6 6 77 298 127 447 27 80 69 197 95 260 52 127 56 151 30 180 -22 25 -56
26 -84 3z m1968 -1479 c-197 -1066 -426 -1856 -644 -2221 -55 -93 -134 -180
-173 -190 -82 -20 -136 220 -113 502 43 514 225 1005 568 1529 127 194 366
506 379 494 2 -3 -5 -54 -17 -114z"/>
</g>
</svg>
